PathFileType	4	(X/Y/Z)	D:\MotionData\Pi-Spi Study\20230118_AMCsubject1\Trimmed_right_abd_001_rotated.trc
DataRate	CameraRate	NumFrames	NumMarkers	Units	OrigDataRate	OrigDataStartFrame	OrigNumFrames
200.00	200.00	       9	35	mm	200.00	136	       271
Frame#	Time	C7			Sternum			r_AMC1			r_AMC2			r_AMC3			l_AMC1			l_AMC2			l_AMC3			PX			T8			r_humerous			r_elbow_medial			r_elbow_lateral			r_forearm			r_wrist_radius			r_wrist_ulna			r_MCP_1			r_MCP_3			l_humerous			l_elbow_medial			l_elbow_lateral			l_forearm			l_wrist_radius			l_wrist_ulna			l_MCP_1			l_MCP_3			r_ASIS			r_PSIS			l_ASIS			l_PSIS			r_IC			l_IC			TS			AI			AA			
		X1	Y1	Z1	X2	Y2	Z2	X3	Y3	Z3	X4	Y4	Z4	X5	Y5	Z5	X6	Y6	Z6	X7	Y7	Z7	X8	Y8	Z8	X9	Y9	Z9	X10	Y10	Z10	X11	Y11	Z11	X12	Y12	Z12	X13	Y13	Z13	X14	Y14	Z14	X15	Y15	Z15	X16	Y16	Z16	X17	Y17	Z17	X18	Y18	Z18	X19	Y19	Z19	X20	Y20	Z20	X21	Y21	Z21	X22	Y22	Z22	X23	Y23	Z23	X24	Y24	Z24	X25	Y25	Z25	X26	Y26	Z26	X27	Y27	Z27	X28	Y28	Z28	X29	Y29	Z29	X30	Y30	Z30	X31	Y31	Z31	X32	Y32	Z32	X33	Y33	Z33	X34	Y34	Z34	X35	Y35	Z35	

136	0.675	203.1518	1376.8905	-208.3609	329.791	1301.5291	-197.1613	201.3824	1322.0725	-41.7222	238.1823	1317.9061	-8.4335	261.5825	1350.2142	-29.2767	229.6874	1327.3346	-373.359	270.788	1318.0826	-403.4266	294.4393	1351.4719	-370.1342	381.9824	1111.7929	-191.91	150.0056	1193.4957	-220.0353	296.846	1124.9808	-5.8239	211.6382	991.8992	-24.5361	237.8422	998.0918	35.3824	284.8826	839.3074	43.2279	329.0853	776.9283	19.3807	281.5483	770.2104	38.2441	341.1201	677.2084	32.2515	299.5801	689.992	43.9202	323.4801	1116.1073	-388.1391	223.2698	999.6604	-405.8459	262.4401	993.8342	-445.7099	311.7061	841.4489	-439.7111	340.2421	770.4641	-406.0885	304.4619	766.4745	-433.9453	355.6368	693.4592	-415.9926	312.3872	691.5971	-439.9155	364.7023	907.1894	-65.9776	177.0225	922.6713	-157.4032	374.1769	895.0215	-328.3346	181.5215	917.0741	-261.1246	276.8997	966.8605	-40.8657	284.8847	940.8021	-367.1691	113.0761	1304.9446	-94.422	104.306	1204.4276	-86.9096	189.4978	1300.928	29.2222
137	0.68	203.1591	1376.882	-208.352	329.8178	1301.5334	-197.1508	201.3851	1322.0745	-41.7257	238.1769	1317.9016	-8.4524	261.5786	1350.2263	-29.2663	229.7275	1327.3637	-373.332	270.7535	1318.1244	-403.3667	294.5618	1351.3403	-370.101	382.0319	1111.8209	-191.92	150.0165	1193.5165	-220.0311	296.8422	1125.0124	-5.8366	211.6727	991.8757	-24.5474	237.8699	998.1018	35.379	284.9352	839.2536	43.2509	329.104	776.9429	19.3513	281.5881	770.2399	38.2527	341.1089	677.2189	32.2735	299.6101	689.9811	43.9428	323.4712	1116.1815	-388.1006	223.3277	999.7827	-405.8404	262.3744	993.6781	-445.7074	311.7801	841.4357	-439.7003	341.0628	770.6283	-406.5122	304.9127	766.5326	-434.1374	355.6535	693.4833	-416.0173	312.4974	691.4411	-439.8388	364.7449	907.1951	-65.9854	177.0823	922.6874	-157.3872	374.2247	895.014	-328.3231	181.5493	917.0735	-261.1048	276.977	966.7668	-40.837	284.8167	940.8377	-367.1954	113.0861	1304.9324	-94.4454	104.3205	1204.3946	-86.9529	189.4868	1300.886	29.2221
138	0.685	203.1956	1376.8804	-208.3456	329.8355	1301.5561	-197.1565	201.3925	1322.0709	-41.7095	238.2273	1317.8203	-8.4124	261.583	1350.1918	-29.2398	229.7482	1327.3539	-373.3221	270.8379	1318.1067	-403.4096	294.5617	1351.3663	-370.1728	382.0765	1111.8595	-191.8546	150.0531	1193.488	-220.0226	296.8737	1124.9677	-5.8231	211.6888	991.8895	-24.5382	237.8699	998.0731	35.396	284.9706	839.2909	43.2486	329.1369	776.9075	19.3781	281.6078	770.2376	38.2635	341.1599	677.2335	32.2887	299.6252	690.0009	43.9453	323.5281	1116.1317	-388.1144	223.3773	999.7803	-405.8472	262.3974	993.683	-445.7081	311.7612	841.4689	-439.6782	341.1524	770.4363	-406.4785	304.9203	766.5489	-434.1645	355.6549	693.4767	-415.9798	312.534	691.4431	-439.8602	364.7667	907.1892	-65.9707	177.1012	922.6896	-157.3708	374.2165	895.0008	-328.33	181.5591	917.0841	-261.0754	276.9958	966.7725	-40.8526	284.8422	940.8113	-367.1303	113.0774	1304.9227	-94.4619	104.3248	1204.4109	-86.9453	189.4595	1300.897	29.247
139	0.69	203.1931	1376.8859	-208.3358	329.8421	1301.5493	-197.1492	201.4076	1322.0549	-41.7092	238.2292	1317.8459	-8.4473	261.781	1350.3763	-29.0008	229.747	1327.3389	-373.338	270.8242	1318.0846	-403.374	294.5921	1351.3555	-370.1411	382.0905	1111.8699	-191.8515	150.0663	1193.494	-220.0161	296.9027	1124.9833	-5.8125	211.7089	991.8945	-24.5248	237.9087	998.0789	35.3902	285.0027	839.2977	43.2548	329.1747	776.8818	19.3993	281.7077	770.1912	38.1859	341.1566	677.2288	32.2748	299.597	690.0568	43.9408	323.5283	1116.1356	-388.0538	223.6462	1000.6039	-405.8114	262.4209	993.6902	-445.6862	311.8145	841.4905	-439.7181	341.1457	770.459	-406.4211	304.9717	766.5005	-434.1638	355.6867	693.4786	-415.9739	312.4917	691.4504	-439.7958	364.7458	907.187	-65.9534	177.1151	922.6926	-157.3511	374.195	894.983	-328.3064	181.6128	917.0815	-261.0416	276.986	966.7419	-40.8267	284.904	940.8406	-367.2246	113.1066	1304.92	-94.4593	104.2997	1204.3878	-86.9706	189.5357	1301.0162	29.4665
140	0.695	203.2059	1376.8874	-208.3261	329.8699	1301.564	-197.1183	201.4085	1322.0378	-41.7233	238.2589	1317.7869	-8.4666	261.8692	1350.2284	-29.0764	229.7488	1327.3441	-373.3302	270.843	1318.1056	-403.3957	294.5363	1351.4089	-370.1324	382.1249	1111.8885	-191.8323	150.0841	1193.5061	-220.0075	296.9076	1125.049	-5.7749	211.727	991.9037	-24.5107	237.9276	998.08	35.3891	284.9924	839.3284	43.2836	329.1574	776.9424	19.4163	281.6145	770.2921	38.2491	341.2008	677.2144	32.2872	299.6298	690.0137	43.968	323.5066	1116.1896	-388.0399	223.4191	999.7904	-405.8311	262.4258	993.689	-445.6769	311.8172	841.5159	-439.7055	341.1804	770.4385	-406.4635	305.0162	766.4863	-434.1501	355.6923	693.5268	-415.9905	312.4767	691.4902	-439.8179	364.8105	907.1838	-65.9221	177.1385	922.7065	-157.3409	374.2494	894.9775	-328.3019	181.6211	917.0858	-261.0382	277.0403	966.7501	-40.8336	284.9673	940.6838	-367.0759	113.0973	1304.9248	-94.4717	104.3161	1204.3984	-86.9721	189.5088	1300.9933	29.4833
141	0.7	203.2125	1376.8911	-208.3108	329.8769	1301.5529	-197.1308	201.4265	1322.0465	-41.7121	238.2558	1317.7913	-8.4176	261.6237	1350.0481	-29.3717	229.7555	1327.3312	-373.3022	270.8454	1318.1221	-403.3833	294.4505	1351.5154	-370.0913	382.1377	1111.8878	-191.8481	150.1135	1193.4832	-220.0039	296.9055	1125.0881	-5.7506	211.7285	991.9202	-24.5201	237.9491	998.071	35.3885	285.0335	839.3258	43.2796	329.1381	777.0285	19.4549	281.7185	770.2009	38.2155	341.18	677.2047	32.318	299.6649	689.9836	43.979	323.5956	1116.1593	-388.0782	223.4269	999.7973	-405.8087	262.4601	993.6836	-445.6771	312.0278	841.421	-439.4384	341.1886	770.4593	-406.4825	305.0132	766.5057	-434.1365	355.7302	693.4894	-416.0014	312.5248	691.4713	-439.8235	364.8492	907.1625	-65.9033	177.1318	922.7196	-157.3172	374.2713	894.9827	-328.2855	181.6419	917.0708	-261.0354	277.0183	966.8146	-40.7831	284.8635	940.8055	-367.154	113.0968	1304.9237	-94.4646	104.3467	1204.3981	-87.0276	189.3906	1300.8091	29.2847
142	0.705	203.2252	1376.8888	-208.301	329.9236	1301.5626	-197.1032	201.4374	1322.0334	-41.7026	238.2645	1317.8077	-8.4448	261.8044	1350.3016	-29.0394	229.7778	1327.3296	-373.287	270.8278	1318.1205	-403.3639	294.4641	1351.4984	-370.0903	382.1883	1111.9283	-191.8112	150.1106	1193.4745	-219.9751	296.9218	1125.0673	-5.7468	211.7622	991.929	-24.5282	238.7302	997.9454	34.9444	285.044	839.3467	43.2871	329.2108	776.9772	19.3972	281.7122	770.2381	38.2789	341.237	677.2078	32.3045	299.7847	689.9488	43.9727	323.5695	1116.1599	-388.0191	223.4597	999.7948	-405.8025	262.7116	993.9631	-445.6552	311.9565	841.4294	-439.6703	341.1818	770.4947	-406.4086	305.0282	766.4934	-434.1248	355.7143	693.5381	-416.0305	312.5034	691.5349	-439.8638	364.8057	907.1712	-65.8591	177.1486	922.7098	-157.3112	374.2751	894.9625	-328.265	181.6415	917.097	-261.0286	277.0407	966.8072	-40.7667	284.8951	940.8484	-367.1032	113.1166	1304.9126	-94.467	104.3201	1204.3573	-87.0287	189.4986	1300.9582	29.4879
143	0.71	203.2388	1376.8862	-208.3016	329.9426	1301.5603	-197.1228	201.456	1322.0463	-41.6983	238.2315	1317.8463	-8.3903	261.863	1350.2427	-29.0515	229.784	1327.339	-373.3035	270.9541	1318.0593	-403.4099	294.5553	1351.4401	-370.1192	382.2121	1111.9215	-191.8089	150.1308	1193.4853	-219.9889	296.9912	1125.0507	-5.7793	211.7814	991.9172	-24.5031	237.9703	998.0864	35.426	285.0891	839.3092	43.3194	329.2053	777.0077	19.4262	281.6646	770.3459	38.3344	341.2315	677.2249	32.3424	299.7983	689.963	43.993	323.6102	1116.172	-387.9906	223.4651	999.7937	-405.8265	262.5122	993.6892	-445.6475	311.9503	841.4647	-439.6603	341.2336	770.4722	-406.4552	305.0424	766.5073	-434.1132	355.7392	693.5225	-416.0142	312.544	691.5263	-439.8438	364.9151	907.1979	-65.8947	177.1763	922.7161	-157.2928	374.2864	894.9459	-328.2804	181.6761	917.0721	-261.0098	277.0642	966.7748	-40.7622	284.9197	940.8717	-367.1411	113.1326	1304.9025	-94.4636	104.3315	1204.3737	-87.0503	189.4721	1300.9148	29.5161
144	0.715	203.2628	1376.8783	-208.2962	329.9649	1301.5698	-197.0862	201.4745	1322.0391	-41.688	238.254	1317.8344	-8.4064	261.8912	1350.2349	-29.0201	229.7988	1327.3307	-373.2608	270.9114	1318.0612	-403.3564	294.5662	1351.4614	-370.125	382.2322	1111.9352	-191.7832	150.143	1193.4767	-219.969	297.0023	1125.0206	-5.7297	211.7792	991.9108	-24.4887	237.9985	998.0806	35.4275	285.0769	839.3411	43.3235	329.2827	776.9089	19.4271	281.7441	770.2939	38.2997	341.2472	677.1892	32.3291	299.7076	690.0202	44.0032	323.5847	1116.201	-387.955	223.4557	999.6873	-405.8061	262.6444	993.7747	-445.6897	311.9815	841.477	-439.6411	341.2541	770.5094	-406.4377	305.0505	766.5048	-434.1208	355.7081	693.6084	-416.0251	312.5595	691.5369	-439.8575	364.8874	907.1835	-65.8573	177.2001	922.7038	-157.2886	374.3138	894.9557	-328.2618	181.7077	917.1024	-260.9901	277.1047	966.797	-40.7813	284.9872	940.8892	-367.1157	113.1497	1304.8989	-94.4679	104.3261	1204.3569	-87.0888	189.4633	1300.9141	29.5165
